<?xml version="1.0" standalone="no"?>
<!DOCTYPE svg PUBLIC "-//W3C//DTD SVG 20010904//EN"
 "http://www.w3.org/TR/2001/REC-SVG-20010904/DTD/svg10.dtd">
<svg version="1.0" xmlns="http://www.w3.org/2000/svg"
 width="700.000000pt" height="700.000000pt" viewBox="0 0 700.000000 700.000000"
 preserveAspectRatio="xMidYMid meet">
<metadata>
Created by potrace 1.11, written by Peter Selinger 2001-2013
</metadata>
<g transform="translate(0.000000,700.000000) scale(0.100000,-0.100000)"
fill="#000000" stroke="none">
<path d="M2298 6975 c-2 -1 -41 -5 -88 -9 -47 -3 -98 -8 -115 -11 -132 -22
-172 -30 -260 -52 -641 -158 -1201 -587 -1524 -1167 -33 -60 -81 -156 -106
-214 -43 -99 -119 -312 -129 -364 -2 -13 -13 -66 -25 -118 -23 -110 -28 -138
-38 -240 -10 -97 -10 -2538 0 -2608 26 -186 30 -206 62 -332 51 -200 106 -346
200 -527 58 -111 177 -303 208 -335 7 -7 23 -27 35 -45 51 -72 229 -259 332
-347 179 -155 446 -318 660 -404 111 -44 297 -103 375 -118 11 -2 34 -7 50
-11 17 -4 32 -7 35 -8 3 -1 30 -5 60 -10 30 -4 62 -9 70 -11 96 -15 362 -18
1395 -18 666 0 1246 3 1290 7 185 18 395 62 559 119 89 30 311 123 331 139 6
4 37 22 70 39 63 33 255 160 314 207 117 94 302 273 361 349 8 11 33 42 56 69
230 283 419 707 479 1075 4 25 9 52 10 61 5 24 14 107 20 179 6 69 7 2404 1
2480 -5 65 -16 147 -26 205 -5 28 -12 64 -15 80 -8 46 -12 65 -29 130 -143
552 -482 1039 -956 1377 -297 211 -699 368 -1060 413 -30 4 -66 9 -80 12 -24
5 -2517 12 -2522 8z m503 -2676 c146 -74 174 -279 52 -390 -98 -90 -345 -213
-542 -270 -179 -52 -335 -74 -521 -74 -317 0 -626 91 -914 267 -135 84 -174
134 -180 231 -7 134 86 242 216 252 65 5 121 -14 217 -74 167 -103 347 -165
546 -188 99 -11 275 -5 360 12 44 10 89 19 100 21 57 11 205 72 292 121 197
112 224 122 297 115 22 -2 56 -12 77 -23z m1614 -10 c17 -9 73 -40 125 -71
149 -86 323 -146 485 -167 99 -13 336 -6 425 13 160 34 267 77 447 179 152 87
243 89 336 7 87 -77 102 -197 36 -298 -44 -68 -204 -170 -399 -256 -85 -37
-257 -84 -380 -105 -119 -19 -154 -22 -295 -26 -314 -7 -641 83 -930 257 -138
83 -194 154 -195 248 0 78 55 171 129 215 56 33 155 35 216 4z m-45 -2743
c138 -59 184 -241 93 -364 -83 -111 -468 -292 -718 -336 -16 -3 -39 -8 -50
-10 -11 -2 -51 -7 -90 -10 -38 -4 -100 -11 -137 -16 -120 -17 -337 4 -515 51
-174 46 -385 140 -536 239 -87 57 -103 74 -126 136 -62 166 68 338 243 319 62
-6 86 -16 170 -69 148 -95 311 -155 493 -182 26 -3 57 -8 68 -11 24 -5 228 -4
270 1 68 8 118 18 141 26 13 5 24 8 24 6 0 -4 56 13 130 39 61 22 214 100 265
135 90 62 197 80 275 46z"/>
</g>
</svg>
